HIERARCHY
ROOT Hips
{
	OFFSET -0.001795 -0.223333 0.028219
	CHANNELS 6 Xposition Yposition Zposition Zrotation Yrotation Xrotation 
	JOINT LeftUpLeg
	{
		OFFSET 0.069520 -0.091406 -0.006815
		CHANNELS 3 Zrotation Yrotation Xrotation
		JOINT LeftLeg
		{
			OFFSET 0.034277 -0.375199 -0.004496
			CHANNELS 3 Zrotation Yrotation Xrotation
			JOINT LeftFoot
			{
				OFFSET -0.013596 -0.397961 -0.043693
				CHANNELS 3 Zrotation Yrotation Xrotation
				JOINT LeftToe
				{
					OFFSET 0.026358 -0.055791 0.119288
					CHANNELS 3 Zrotation Yrotation Xrotation
					End Site
					{
						OFFSET 0.000000 0.000000 0.000000
					}
				}
			}
		}
	}
	JOINT RightUpLeg
	{
		OFFSET -0.067670 -0.090522 -0.004320
		CHANNELS 3 Zrotation Yrotation Xrotation
		JOINT RightLeg
		{
			OFFSET -0.038290 -0.382569 -0.008850
			CHANNELS 3 Zrotation Yrotation Xrotation
			JOINT RightFoot
			{
				OFFSET 0.015774 -0.398415 -0.042312
				CHANNELS 3 Zrotation Yrotation Xrotation
				JOINT RightToe
				{
					OFFSET -0.025372 -0.048144 0.123348
					CHANNELS 3 Zrotation Yrotation Xrotation
					End Site
					{
						OFFSET 0.000000 0.000000 0.000000
					}
				}
			}
		}
	}
	JOINT Spine
	{
		OFFSET -0.002533 0.108963 -0.026696
		CHANNELS 3 Zrotation Yrotation Xrotation
		JOINT Spine1
		{
			OFFSET 0.005487 0.135180 0.001092
			CHANNELS 3 Zrotation Yrotation Xrotation
			JOINT Spine2
			{
				OFFSET 0.001457 0.052922 0.025425
				CHANNELS 3 Zrotation Yrotation Xrotation
				JOINT Neck
				{
					OFFSET -0.002778 0.213870 -0.042857
					CHANNELS 3 Zrotation Yrotation Xrotation
					JOINT Head
					{
						OFFSET 0.005152 0.064970 0.051349
						CHANNELS 3 Zrotation Yrotation Xrotation
						End Site
						{
							OFFSET 0.000000 0.000000 0.000000
						}
					}
				}
				JOINT LeftShoulder
				{
					OFFSET 0.078845 0.121749 -0.034090
					CHANNELS 3 Zrotation Yrotation Xrotation
					JOINT LeftArm
					{
						OFFSET 0.090977 0.030469 -0.008868
						CHANNELS 3 Zrotation Yrotation Xrotation
						JOINT LeftForeArm
						{
							OFFSET 0.259612 -0.012772 -0.027456
							CHANNELS 3 Zrotation Yrotation Xrotation
							JOINT LeftHand
							{
								OFFSET 0.249234 0.008986 -0.001171
								CHANNELS 3 Zrotation Yrotation Xrotation
								End Site
								{
									OFFSET 0.000000 0.000000 0.000000
								}
							}
						}
					}
				}
				JOINT RightShoulder
				{
					OFFSET -0.081759 0.118833 -0.038615
					CHANNELS 3 Zrotation Yrotation Xrotation
					JOINT RightArm
					{
						OFFSET -0.096012 0.032551 -0.009143
						CHANNELS 3 Zrotation Yrotation Xrotation
						JOINT RightForeArm
						{
							OFFSET -0.253742 -0.013329 -0.021401
							CHANNELS 3 Zrotation Yrotation Xrotation
							JOINT RightHand
							{
								OFFSET -0.255298 0.007772 -0.005559
								CHANNELS 3 Zrotation Yrotation Xrotation
								End Site
								{
									OFFSET 0.000000 0.000000 0.000000
								}
							}
						}
					}
				}
			}
		}
	}
}
MOTION
Frames: 7
Frame Time: 0.050000
0.048386 0.954834 0.264323 1.598563 -8.248778 7.017565 7.508321 -0.297525 -11.407272 2.685028 -0.129956 -3.376177 -2.821274 1.644201 20.968171 0.000000 0.000000 0.000000 -0.722506 0.867891 -8.821544 2.640466 -0.237354 -0.920136 -0.204429 -4.408166 7.033164 0.000000 0.000000 0.000000 1.264671 -0.276472 4.789560 3.078302 -1.403348 0.192296 -1.233551 0.297839 4.093602 1.961740 -1.300880 -3.895703 0.000000 0.000000 0.000000 -14.436971 -2.256739 0.440795 -51.453112 -3.493820 -4.601627 -120.256567 -48.123731 83.415167 0.000000 0.000000 0.000000 6.099797 2.888207 0.308673 44.218078 -10.372548 -7.658115 129.806407 40.369692 75.247018 0.000000 0.000000 0.000000 
0.047460 0.955094 0.259720 1.697236 -7.474311 7.340528 7.286652 -0.343168 -11.293393 1.864318 -0.099049 -2.511303 -1.478054 2.317822 15.967436 0.000000 0.000000 0.000000 -0.533619 0.910130 -9.193368 2.331358 -0.226050 -1.320088 -0.474390 -5.074992 7.400230 0.000000 0.000000 0.000000 1.584612 -0.300946 4.744520 2.790419 -1.270373 0.127639 -0.978036 1.260897 4.018815 2.127878 -1.354791 -4.183878 0.000000 0.000000 0.000000 -14.646292 -3.009036 0.557328 -51.498220 -3.554542 -4.555964 -120.437860 -48.321496 82.976751 0.000000 0.000000 0.000000 6.104083 2.510955 0.269681 43.216264 -10.893908 -7.601111 132.301643 40.240400 79.540231 0.000000 0.000000 0.000000 
0.047874 0.954572 0.257121 1.767363 -6.898933 7.285851 7.118783 -0.363854 -10.758936 2.026101 -0.038727 -3.890578 -1.855355 1.924236 16.310068 0.000000 0.000000 0.000000 -0.263624 0.901654 -9.053386 1.756533 -0.195010 -1.688125 -0.715183 -5.535241 7.421754 0.000000 0.000000 0.000000 1.761787 -0.308227 4.620134 2.854407 -1.301309 0.047714 -1.008919 1.389649 4.382967 2.115629 -1.314034 -4.422328 0.000000 0.000000 0.000000 -14.477676 -2.286957 0.131761 -51.582871 -3.281100 -4.697014 -120.371552 -49.877162 84.682487 0.000000 0.000000 0.000000 6.149591 2.641053 0.357450 42.613597 -10.725873 -7.442612 135.337397 40.206153 84.298745 0.000000 0.000000 0.000000 
0.049625 0.953787 0.255843 1.786929 -6.793380 7.524784 6.987130 -0.373931 -10.362159 2.067964 0.034480 -5.252969 -1.950005 1.858914 16.535407 0.000000 0.000000 0.000000 -0.186758 0.939378 -9.389108 1.393855 -0.169659 -1.710857 -0.806904 -5.672641 7.307565 0.000000 0.000000 0.000000 1.894298 -0.303242 4.312862 2.889177 -1.320799 0.178308 -0.865885 2.111908 4.695149 2.950165 -1.777172 -5.712185 0.000000 0.000000 0.000000 -14.537755 -1.921442 -0.185304 -51.517966 -2.920153 -4.858417 -119.211606 -52.116077 85.688078 0.000000 0.000000 0.000000 6.441805 2.327608 0.273531 42.350285 -9.728938 -7.084184 138.413956 40.548408 90.376108 0.000000 0.000000 0.000000 
0.052735 0.953265 0.255244 1.767944 -6.974011 7.640592 6.815351 -0.376510 -9.958707 2.081469 0.088652 -6.214718 -1.874623 1.963968 16.605610 0.000000 0.000000 0.000000 0.105487 0.965160 -9.545065 0.537895 -0.109461 -1.781535 -0.753856 -5.556220 7.236585 0.000000 0.000000 0.000000 1.682108 -0.293842 4.423575 3.181227 -1.452400 0.120031 -0.459090 2.569634 4.970990 2.771065 -1.489166 -7.160253 0.000000 0.000000 0.000000 -14.225656 -1.109011 -0.609918 -51.846754 -2.338861 -5.143549 -120.015520 -54.837924 89.898673 0.000000 0.000000 0.000000 6.873075 2.749224 0.439807 43.542044 -7.674777 -6.651532 141.854504 41.496126 98.035246 0.000000 0.000000 0.000000 
0.057386 0.952436 0.254448 1.861069 -7.302389 8.112750 6.679002 -0.385753 -9.889638 1.675596 0.174363 -7.294647 -1.700576 2.197937 16.690144 0.000000 0.000000 0.000000 0.005343 1.038529 -10.239509 -0.051830 -0.063045 -1.694449 -0.682118 -5.394115 7.121736 0.000000 0.000000 0.000000 1.340886 -0.247628 3.949083 3.594444 -1.653264 0.554382 -0.242026 3.501971 5.162778 2.892210 -1.386671 -8.546966 0.000000 0.000000 0.000000 -13.976237 -0.524553 -1.005151 -51.227676 -2.238828 -5.125778 -122.224096 -57.932003 95.891045 0.000000 0.000000 0.000000 7.403197 3.981925 0.995834 44.661366 -4.681006 -5.832089 145.482805 44.086054 109.293811 0.000000 0.000000 0.000000 
0.063751 0.953038 0.252902 2.115549 -8.156991 8.369147 6.190261 -0.410477 -9.824111 1.371519 0.225434 -7.924439 -1.306243 2.732826 16.944358 0.000000 0.000000 0.000000 -0.394679 1.093711 -10.858145 -0.650594 -0.015268 -1.591978 -0.303201 -4.809448 7.395595 0.000000 0.000000 0.000000 1.176715 -0.254922 4.364325 3.280122 -1.518881 1.221911 0.325505 4.212769 4.355213 2.385261 -0.858954 -10.113445 0.000000 0.000000 0.000000 -13.470796 -1.094286 -0.740265 -51.655550 -3.013875 -4.761805 -125.523411 -62.295277 104.814239 0.000000 0.000000 0.000000 8.244047 6.414334 2.007771 46.268021 0.081629 -4.287332 149.410082 49.379419 123.666195 0.000000 0.000000 0.000000 
